<mxfile host="Electron" agent="Mozilla/5.0 (Windows NT 10.0; Win64; x64) AppleWebKit/537.36 (KHTML, like Gecko) draw.io/26.0.4 Chrome/128.0.6613.186 Electron/32.2.5 Safari/537.36" version="26.0.4">
  <diagram name="Страница — 1" id="qYMcQZidO0-yW6cIo81G">
    <mxGraphModel dx="1834" dy="844" grid="1" gridSize="10" guides="0" tooltips="1" connect="0" arrows="0" fold="1" page="0" pageScale="1" pageWidth="827" pageHeight="1169" math="0" shadow="0">
      <root>
        <mxCell id="0" />
        <mxCell id="1" parent="0" />
        <mxCell id="RGtAdJCoP5h75ATYD8qg-53" value="" style="rounded=1;whiteSpace=wrap;html=1;textOpacity=0;strokeWidth=5;perimeterSpacing=0;fillColor=none;strokeColor=#ff0000;" parent="1" vertex="1">
          <mxGeometry x="450" y="250" width="750" height="360" as="geometry" />
        </mxCell>
        <mxCell id="Lu8lod0RweKCpHLHDI5q-197" value="" style="rounded=1;whiteSpace=wrap;html=1;textOpacity=0;strokeWidth=5;perimeterSpacing=0;fillColor=none;strokeColor=#ff0000;" parent="1" vertex="1">
          <mxGeometry x="450" y="640" width="760" height="370" as="geometry" />
        </mxCell>
        <mxCell id="RGtAdJCoP5h75ATYD8qg-1" value="&lt;font style=&quot;font-size: 14px;&quot;&gt;Пользователь&lt;/font&gt;&lt;div style=&quot;font-size: 14px;&quot;&gt;&lt;br&gt;&lt;/div&gt;" style="shape=umlActor;verticalLabelPosition=bottom;verticalAlign=top;html=1;outlineConnect=0;" parent="1" vertex="1">
          <mxGeometry x="25" y="70" width="30" height="60" as="geometry" />
        </mxCell>
        <mxCell id="RGtAdJCoP5h75ATYD8qg-4" value="" style="endArrow=none;dashed=1;html=1;rounded=0;" parent="1" edge="1">
          <mxGeometry width="50" height="50" relative="1" as="geometry">
            <mxPoint x="40" y="3720" as="sourcePoint" />
            <mxPoint x="40" y="160" as="targetPoint" />
          </mxGeometry>
        </mxCell>
        <mxCell id="RGtAdJCoP5h75ATYD8qg-5" value="" style="endArrow=classic;html=1;rounded=0;entryX=0;entryY=0.051;entryDx=0;entryDy=0;entryPerimeter=0;" parent="1" edge="1">
          <mxGeometry width="50" height="50" relative="1" as="geometry">
            <mxPoint x="40" y="190" as="sourcePoint" />
            <mxPoint x="360" y="190.08999999999992" as="targetPoint" />
          </mxGeometry>
        </mxCell>
        <mxCell id="RGtAdJCoP5h75ATYD8qg-6" value="Пользователь авторизован в качестве менеджера" style="text;html=1;align=center;verticalAlign=middle;whiteSpace=wrap;rounded=0;" parent="1" vertex="1">
          <mxGeometry x="80" y="160" width="200" height="30" as="geometry" />
        </mxCell>
        <mxCell id="RGtAdJCoP5h75ATYD8qg-7" value="route" style="rounded=0;whiteSpace=wrap;html=1;" parent="1" vertex="1">
          <mxGeometry x="360" y="160" width="80" height="1010" as="geometry" />
        </mxCell>
        <mxCell id="RGtAdJCoP5h75ATYD8qg-8" value="model_route" style="rounded=0;whiteSpace=wrap;html=1;" parent="1" vertex="1">
          <mxGeometry x="560" y="670" width="80" height="320" as="geometry" />
        </mxCell>
        <mxCell id="RGtAdJCoP5h75ATYD8qg-27" value="" style="endArrow=classic;html=1;rounded=0;exitX=0;exitY=0.136;exitDx=0;exitDy=0;exitPerimeter=0;" parent="1" edge="1">
          <mxGeometry width="50" height="50" relative="1" as="geometry">
            <mxPoint x="360" y="240.24" as="sourcePoint" />
            <mxPoint x="240" y="240" as="targetPoint" />
          </mxGeometry>
        </mxCell>
        <mxCell id="RGtAdJCoP5h75ATYD8qg-28" value="storage.html" style="rounded=0;whiteSpace=wrap;html=1;" parent="1" vertex="1">
          <mxGeometry x="120" y="220" width="120" height="40" as="geometry" />
        </mxCell>
        <mxCell id="RGtAdJCoP5h75ATYD8qg-29" value="" style="endArrow=classic;html=1;rounded=0;" parent="1" edge="1">
          <mxGeometry width="50" height="50" relative="1" as="geometry">
            <mxPoint x="120" y="240" as="sourcePoint" />
            <mxPoint x="40" y="240" as="targetPoint" />
          </mxGeometry>
        </mxCell>
        <mxCell id="RGtAdJCoP5h75ATYD8qg-30" value="" style="endArrow=classic;html=1;rounded=0;" parent="1" edge="1">
          <mxGeometry width="50" height="50" relative="1" as="geometry">
            <mxPoint x="40" y="300" as="sourcePoint" />
            <mxPoint x="360" y="301" as="targetPoint" />
          </mxGeometry>
        </mxCell>
        <mxCell id="RGtAdJCoP5h75ATYD8qg-31" value="Страница с выбором действий" style="text;html=1;align=center;verticalAlign=middle;whiteSpace=wrap;rounded=0;" parent="1" vertex="1">
          <mxGeometry x="240" y="196" width="100" height="41" as="geometry" />
        </mxCell>
        <mxCell id="RGtAdJCoP5h75ATYD8qg-32" value="HTML-страница" style="text;html=1;align=center;verticalAlign=middle;whiteSpace=wrap;rounded=0;" parent="1" vertex="1">
          <mxGeometry x="40" y="210" width="80" height="27" as="geometry" />
        </mxCell>
        <mxCell id="RGtAdJCoP5h75ATYD8qg-33" value="Переход к форме добавления товара в номенклатуру" style="text;html=1;align=center;verticalAlign=middle;whiteSpace=wrap;rounded=0;" parent="1" vertex="1">
          <mxGeometry x="80" y="270" width="200" height="30" as="geometry" />
        </mxCell>
        <mxCell id="RGtAdJCoP5h75ATYD8qg-34" value="" style="endArrow=none;dashed=1;html=1;rounded=0;" parent="1" edge="1">
          <mxGeometry width="50" height="50" relative="1" as="geometry">
            <mxPoint x="340" y="3720" as="sourcePoint" />
            <mxPoint x="340" y="160" as="targetPoint" />
          </mxGeometry>
        </mxCell>
        <mxCell id="RGtAdJCoP5h75ATYD8qg-35" value="View" style="text;html=1;align=center;verticalAlign=middle;whiteSpace=wrap;rounded=0;fontSize=18;fontStyle=1" parent="1" vertex="1">
          <mxGeometry x="110" y="90" width="190" height="30" as="geometry" />
        </mxCell>
        <mxCell id="RGtAdJCoP5h75ATYD8qg-36" value="Controller" style="text;html=1;align=center;verticalAlign=middle;whiteSpace=wrap;rounded=0;fontSize=18;fontStyle=1" parent="1" vertex="1">
          <mxGeometry x="310" y="90" width="190" height="30" as="geometry" />
        </mxCell>
        <mxCell id="RGtAdJCoP5h75ATYD8qg-37" value="" style="endArrow=none;dashed=1;html=1;rounded=0;" parent="1" edge="1">
          <mxGeometry width="50" height="50" relative="1" as="geometry">
            <mxPoint x="460" y="3720" as="sourcePoint" />
            <mxPoint x="460" y="160" as="targetPoint" />
          </mxGeometry>
        </mxCell>
        <mxCell id="RGtAdJCoP5h75ATYD8qg-38" value="Model" style="text;html=1;align=center;verticalAlign=middle;whiteSpace=wrap;rounded=0;fontSize=18;fontStyle=1" parent="1" vertex="1">
          <mxGeometry x="650" y="90" width="190" height="30" as="geometry" />
        </mxCell>
        <mxCell id="RGtAdJCoP5h75ATYD8qg-39" value="" style="endArrow=none;dashed=1;html=1;rounded=0;" parent="1" edge="1">
          <mxGeometry width="50" height="50" relative="1" as="geometry">
            <mxPoint x="1060" y="3720" as="sourcePoint" />
            <mxPoint x="1060" y="160" as="targetPoint" />
          </mxGeometry>
        </mxCell>
        <mxCell id="RGtAdJCoP5h75ATYD8qg-54" value="(1)" style="text;html=1;align=center;verticalAlign=middle;whiteSpace=wrap;rounded=0;fontSize=30;fontStyle=1" parent="1" vertex="1">
          <mxGeometry x="633" y="210" width="40" height="30" as="geometry" />
        </mxCell>
        <mxCell id="RGtAdJCoP5h75ATYD8qg-55" value="&lt;font style=&quot;font-size: 14px;&quot;&gt;&lt;b&gt;Исключения&lt;/b&gt;&lt;/font&gt;" style="text;html=1;align=center;verticalAlign=middle;whiteSpace=wrap;rounded=0;" parent="1" vertex="1">
          <mxGeometry x="-60" y="1180" width="80" height="30" as="geometry" />
        </mxCell>
        <mxCell id="RGtAdJCoP5h75ATYD8qg-56" value="&lt;font style=&quot;font-size: 14px;&quot;&gt;&lt;b&gt;4.б&lt;/b&gt;&lt;/font&gt;" style="text;html=1;align=center;verticalAlign=middle;whiteSpace=wrap;rounded=0;" parent="1" vertex="1">
          <mxGeometry x="-60" y="1660" width="80" height="30" as="geometry" />
        </mxCell>
        <mxCell id="RGtAdJCoP5h75ATYD8qg-67" value="" style="endArrow=none;html=1;rounded=0;strokeWidth=5;" parent="1" edge="1">
          <mxGeometry width="50" height="50" relative="1" as="geometry">
            <mxPoint x="40" y="1200" as="sourcePoint" />
            <mxPoint x="1060" y="1200" as="targetPoint" />
          </mxGeometry>
        </mxCell>
        <mxCell id="HIFGjbyYwKrJUQ1s1TsJ-1" value="&lt;font style=&quot;font-size: 14px;&quot;&gt;&lt;b&gt;4.а&lt;/b&gt;&lt;/font&gt;" style="text;html=1;align=center;verticalAlign=middle;whiteSpace=wrap;rounded=0;" parent="1" vertex="1">
          <mxGeometry x="-50" y="1250" width="80" height="30" as="geometry" />
        </mxCell>
        <mxCell id="HIFGjbyYwKrJUQ1s1TsJ-7" value="" style="endArrow=none;html=1;rounded=0;strokeWidth=5;" parent="1" edge="1">
          <mxGeometry width="50" height="50" relative="1" as="geometry">
            <mxPoint x="40" y="1630" as="sourcePoint" />
            <mxPoint x="1060" y="1630" as="targetPoint" />
          </mxGeometry>
        </mxCell>
        <mxCell id="DdEWaxvUTUjRp04HUIm7-3" value="" style="endArrow=classic;html=1;rounded=0;exitX=0;exitY=0.136;exitDx=0;exitDy=0;exitPerimeter=0;" parent="1" edge="1">
          <mxGeometry width="50" height="50" relative="1" as="geometry">
            <mxPoint x="360" y="610.24" as="sourcePoint" />
            <mxPoint x="240" y="610" as="targetPoint" />
          </mxGeometry>
        </mxCell>
        <mxCell id="DdEWaxvUTUjRp04HUIm7-4" value="add_nomenklatura&lt;div&gt;.html&lt;/div&gt;" style="rounded=0;whiteSpace=wrap;html=1;" parent="1" vertex="1">
          <mxGeometry x="120" y="590" width="120" height="40" as="geometry" />
        </mxCell>
        <mxCell id="DdEWaxvUTUjRp04HUIm7-5" value="Форма ввода данных" style="text;html=1;align=center;verticalAlign=middle;whiteSpace=wrap;rounded=0;" parent="1" vertex="1">
          <mxGeometry x="256" y="580" width="80" height="27" as="geometry" />
        </mxCell>
        <mxCell id="DdEWaxvUTUjRp04HUIm7-6" value="HTML-страница" style="text;html=1;align=center;verticalAlign=middle;whiteSpace=wrap;rounded=0;" parent="1" vertex="1">
          <mxGeometry x="40" y="580" width="80" height="27" as="geometry" />
        </mxCell>
        <mxCell id="DdEWaxvUTUjRp04HUIm7-7" value="" style="endArrow=classic;html=1;rounded=0;" parent="1" edge="1">
          <mxGeometry width="50" height="50" relative="1" as="geometry">
            <mxPoint x="120" y="610" as="sourcePoint" />
            <mxPoint x="40" y="610" as="targetPoint" />
          </mxGeometry>
        </mxCell>
        <mxCell id="DdEWaxvUTUjRp04HUIm7-8" value="" style="endArrow=classic;html=1;rounded=0;" parent="1" edge="1">
          <mxGeometry width="50" height="50" relative="1" as="geometry">
            <mxPoint x="40" y="670" as="sourcePoint" />
            <mxPoint x="360" y="671" as="targetPoint" />
          </mxGeometry>
        </mxCell>
        <mxCell id="DdEWaxvUTUjRp04HUIm7-9" value="Название, единица измерения, категория" style="text;html=1;align=center;verticalAlign=middle;whiteSpace=wrap;rounded=0;" parent="1" vertex="1">
          <mxGeometry x="80" y="640" width="200" height="30" as="geometry" />
        </mxCell>
        <mxCell id="DdEWaxvUTUjRp04HUIm7-10" value="" style="endArrow=classic;html=1;rounded=0;entryX=0.016;entryY=0.063;entryDx=0;entryDy=0;entryPerimeter=0;" parent="1" edge="1">
          <mxGeometry width="50" height="50" relative="1" as="geometry">
            <mxPoint x="440" y="697" as="sourcePoint" />
            <mxPoint x="561.2800000000002" y="697.0899999999999" as="targetPoint" />
          </mxGeometry>
        </mxCell>
        <mxCell id="DdEWaxvUTUjRp04HUIm7-11" value="Параметры запроса" style="text;html=1;align=center;verticalAlign=middle;whiteSpace=wrap;rounded=0;" parent="1" vertex="1">
          <mxGeometry x="470" y="660" width="80" height="30" as="geometry" />
        </mxCell>
        <mxCell id="DdEWaxvUTUjRp04HUIm7-12" value="" style="endArrow=classic;html=1;rounded=0;" parent="1" edge="1">
          <mxGeometry width="50" height="50" relative="1" as="geometry">
            <mxPoint x="560" y="968" as="sourcePoint" />
            <mxPoint x="440" y="968" as="targetPoint" />
          </mxGeometry>
        </mxCell>
        <mxCell id="DdEWaxvUTUjRp04HUIm7-13" value="Результат" style="text;html=1;align=center;verticalAlign=middle;whiteSpace=wrap;rounded=0;" parent="1" vertex="1">
          <mxGeometry x="470" y="930" width="80" height="30" as="geometry" />
        </mxCell>
        <mxCell id="DdEWaxvUTUjRp04HUIm7-14" value="" style="endArrow=classic;html=1;rounded=0;exitX=0;exitY=0.136;exitDx=0;exitDy=0;exitPerimeter=0;" parent="1" edge="1">
          <mxGeometry width="50" height="50" relative="1" as="geometry">
            <mxPoint x="360" y="1150.24" as="sourcePoint" />
            <mxPoint x="240" y="1150" as="targetPoint" />
          </mxGeometry>
        </mxCell>
        <mxCell id="DdEWaxvUTUjRp04HUIm7-15" value="add_nomenklatura&lt;div&gt;.html&lt;/div&gt;" style="rounded=0;whiteSpace=wrap;html=1;" parent="1" vertex="1">
          <mxGeometry x="120" y="1130" width="120" height="40" as="geometry" />
        </mxCell>
        <mxCell id="DdEWaxvUTUjRp04HUIm7-16" value="Сообщение о добавлении и обновленный список номенклатуры" style="text;html=1;align=center;verticalAlign=middle;whiteSpace=wrap;rounded=0;" parent="1" vertex="1">
          <mxGeometry x="250" y="1070" width="80" height="77" as="geometry" />
        </mxCell>
        <mxCell id="DdEWaxvUTUjRp04HUIm7-17" value="HTML-страница" style="text;html=1;align=center;verticalAlign=middle;whiteSpace=wrap;rounded=0;" parent="1" vertex="1">
          <mxGeometry x="40" y="1120" width="80" height="27" as="geometry" />
        </mxCell>
        <mxCell id="DdEWaxvUTUjRp04HUIm7-18" value="" style="endArrow=classic;html=1;rounded=0;" parent="1" edge="1">
          <mxGeometry width="50" height="50" relative="1" as="geometry">
            <mxPoint x="120" y="1150" as="sourcePoint" />
            <mxPoint x="40" y="1150" as="targetPoint" />
          </mxGeometry>
        </mxCell>
        <mxCell id="DdEWaxvUTUjRp04HUIm7-94" value="&lt;font style=&quot;font-size: 14px;&quot;&gt;&lt;b&gt;4.в&lt;/b&gt;&lt;/font&gt;" style="text;html=1;align=center;verticalAlign=middle;whiteSpace=wrap;rounded=0;" parent="1" vertex="1">
          <mxGeometry x="-50" y="2090" width="80" height="30" as="geometry" />
        </mxCell>
        <mxCell id="DdEWaxvUTUjRp04HUIm7-95" value="" style="endArrow=none;html=1;rounded=0;strokeWidth=5;" parent="1" edge="1">
          <mxGeometry width="50" height="50" relative="1" as="geometry">
            <mxPoint x="40" y="2050" as="sourcePoint" />
            <mxPoint x="1060" y="2050" as="targetPoint" />
          </mxGeometry>
        </mxCell>
        <mxCell id="DdEWaxvUTUjRp04HUIm7-106" value="&lt;font style=&quot;font-size: 14px;&quot;&gt;&lt;b&gt;4.г&lt;/b&gt;&lt;/font&gt;" style="text;html=1;align=center;verticalAlign=middle;whiteSpace=wrap;rounded=0;" parent="1" vertex="1">
          <mxGeometry x="-50" y="2560" width="80" height="30" as="geometry" />
        </mxCell>
        <mxCell id="DdEWaxvUTUjRp04HUIm7-107" value="" style="endArrow=none;html=1;rounded=0;strokeWidth=5;" parent="1" edge="1">
          <mxGeometry width="50" height="50" relative="1" as="geometry">
            <mxPoint x="40" y="2520" as="sourcePoint" />
            <mxPoint x="1060" y="2520" as="targetPoint" />
          </mxGeometry>
        </mxCell>
        <mxCell id="Lu8lod0RweKCpHLHDI5q-1" value="sql_provider" style="rounded=0;whiteSpace=wrap;html=1;" parent="1" vertex="1">
          <mxGeometry x="730" y="712" width="80" height="40" as="geometry" />
        </mxCell>
        <mxCell id="Lu8lod0RweKCpHLHDI5q-2" value="insert" style="rounded=0;whiteSpace=wrap;html=1;" parent="1" vertex="1">
          <mxGeometry x="730" y="792" width="80" height="160" as="geometry" />
        </mxCell>
        <mxCell id="Lu8lod0RweKCpHLHDI5q-3" value="DBcm" style="rounded=0;whiteSpace=wrap;html=1;" parent="1" vertex="1">
          <mxGeometry x="890" y="832" width="80" height="40" as="geometry" />
        </mxCell>
        <mxCell id="Lu8lod0RweKCpHLHDI5q-4" value="СУБД" style="strokeWidth=2;html=1;shape=mxgraph.flowchart.database;whiteSpace=wrap;" parent="1" vertex="1">
          <mxGeometry x="1090" y="822" width="90" height="130" as="geometry" />
        </mxCell>
        <mxCell id="Lu8lod0RweKCpHLHDI5q-5" value="" style="endArrow=classic;html=1;rounded=0;" parent="1" edge="1">
          <mxGeometry width="50" height="50" relative="1" as="geometry">
            <mxPoint x="640" y="722" as="sourcePoint" />
            <mxPoint x="730" y="722" as="targetPoint" />
          </mxGeometry>
        </mxCell>
        <mxCell id="Lu8lod0RweKCpHLHDI5q-6" value="" style="endArrow=classic;html=1;rounded=0;" parent="1" edge="1">
          <mxGeometry width="50" height="50" relative="1" as="geometry">
            <mxPoint x="730" y="742" as="sourcePoint" />
            <mxPoint x="640" y="742" as="targetPoint" />
          </mxGeometry>
        </mxCell>
        <mxCell id="Lu8lod0RweKCpHLHDI5q-7" value="" style="endArrow=classic;html=1;rounded=0;" parent="1" edge="1">
          <mxGeometry width="50" height="50" relative="1" as="geometry">
            <mxPoint x="640" y="812" as="sourcePoint" />
            <mxPoint x="730" y="812" as="targetPoint" />
          </mxGeometry>
        </mxCell>
        <mxCell id="Lu8lod0RweKCpHLHDI5q-8" value="" style="endArrow=classic;html=1;rounded=0;" parent="1" edge="1">
          <mxGeometry width="50" height="50" relative="1" as="geometry">
            <mxPoint x="810" y="842" as="sourcePoint" />
            <mxPoint x="890" y="842" as="targetPoint" />
          </mxGeometry>
        </mxCell>
        <mxCell id="Lu8lod0RweKCpHLHDI5q-9" value="" style="endArrow=classic;html=1;rounded=0;" parent="1" edge="1">
          <mxGeometry width="50" height="50" relative="1" as="geometry">
            <mxPoint x="890" y="862" as="sourcePoint" />
            <mxPoint x="810" y="862" as="targetPoint" />
          </mxGeometry>
        </mxCell>
        <mxCell id="Lu8lod0RweKCpHLHDI5q-10" value="" style="endArrow=classic;html=1;rounded=0;entryX=0;entryY=0.154;entryDx=0;entryDy=0;entryPerimeter=0;" parent="1" target="Lu8lod0RweKCpHLHDI5q-4" edge="1">
          <mxGeometry width="50" height="50" relative="1" as="geometry">
            <mxPoint x="970" y="842" as="sourcePoint" />
            <mxPoint x="1050" y="842" as="targetPoint" />
          </mxGeometry>
        </mxCell>
        <mxCell id="Lu8lod0RweKCpHLHDI5q-11" value="" style="endArrow=classic;html=1;rounded=0;exitX=0;exitY=0.308;exitDx=0;exitDy=0;exitPerimeter=0;" parent="1" source="Lu8lod0RweKCpHLHDI5q-4" edge="1">
          <mxGeometry width="50" height="50" relative="1" as="geometry">
            <mxPoint x="1050" y="862" as="sourcePoint" />
            <mxPoint x="970" y="862" as="targetPoint" />
          </mxGeometry>
        </mxCell>
        <mxCell id="Lu8lod0RweKCpHLHDI5q-12" value="" style="endArrow=classic;html=1;rounded=0;entryX=0;entryY=0.692;entryDx=0;entryDy=0;entryPerimeter=0;" parent="1" target="Lu8lod0RweKCpHLHDI5q-4" edge="1">
          <mxGeometry width="50" height="50" relative="1" as="geometry">
            <mxPoint x="810" y="912" as="sourcePoint" />
            <mxPoint x="890" y="912" as="targetPoint" />
          </mxGeometry>
        </mxCell>
        <mxCell id="Lu8lod0RweKCpHLHDI5q-13" value="" style="endArrow=classic;html=1;rounded=0;exitX=0;exitY=0.846;exitDx=0;exitDy=0;exitPerimeter=0;" parent="1" source="Lu8lod0RweKCpHLHDI5q-4" edge="1">
          <mxGeometry width="50" height="50" relative="1" as="geometry">
            <mxPoint x="1050" y="932" as="sourcePoint" />
            <mxPoint x="810" y="932" as="targetPoint" />
          </mxGeometry>
        </mxCell>
        <mxCell id="Lu8lod0RweKCpHLHDI5q-14" value="" style="endArrow=classic;html=1;rounded=0;" parent="1" edge="1">
          <mxGeometry width="50" height="50" relative="1" as="geometry">
            <mxPoint x="730" y="942" as="sourcePoint" />
            <mxPoint x="640" y="942" as="targetPoint" />
          </mxGeometry>
        </mxCell>
        <mxCell id="Lu8lod0RweKCpHLHDI5q-15" value="Параметры запроса" style="text;html=1;align=center;verticalAlign=middle;whiteSpace=wrap;rounded=0;" parent="1" vertex="1">
          <mxGeometry x="650" y="690" width="80" height="30" as="geometry" />
        </mxCell>
        <mxCell id="Lu8lod0RweKCpHLHDI5q-16" value="SQL-запрос" style="text;html=1;align=center;verticalAlign=middle;whiteSpace=wrap;rounded=0;" parent="1" vertex="1">
          <mxGeometry x="650" y="745" width="80" height="26" as="geometry" />
        </mxCell>
        <mxCell id="Lu8lod0RweKCpHLHDI5q-17" value="SQL-запрос добавления" style="text;html=1;align=center;verticalAlign=middle;whiteSpace=wrap;rounded=0;" parent="1" vertex="1">
          <mxGeometry x="650" y="782" width="80" height="26" as="geometry" />
        </mxCell>
        <mxCell id="Lu8lod0RweKCpHLHDI5q-18" value="Запрос соединения" style="text;html=1;align=center;verticalAlign=middle;whiteSpace=wrap;rounded=0;" parent="1" vertex="1">
          <mxGeometry x="810" y="812" width="80" height="30" as="geometry" />
        </mxCell>
        <mxCell id="Lu8lod0RweKCpHLHDI5q-19" value="Курсор" style="text;html=1;align=center;verticalAlign=middle;whiteSpace=wrap;rounded=0;" parent="1" vertex="1">
          <mxGeometry x="810" y="862" width="80" height="30" as="geometry" />
        </mxCell>
        <mxCell id="Lu8lod0RweKCpHLHDI5q-20" value="Подключение" style="text;html=1;align=center;verticalAlign=middle;whiteSpace=wrap;rounded=0;" parent="1" vertex="1">
          <mxGeometry x="970" y="812" width="80" height="30" as="geometry" />
        </mxCell>
        <mxCell id="Lu8lod0RweKCpHLHDI5q-21" value="Курсор" style="text;html=1;align=center;verticalAlign=middle;whiteSpace=wrap;rounded=0;" parent="1" vertex="1">
          <mxGeometry x="970" y="862" width="80" height="30" as="geometry" />
        </mxCell>
        <mxCell id="Lu8lod0RweKCpHLHDI5q-22" value="Выполнение запроса" style="text;html=1;align=center;verticalAlign=middle;whiteSpace=wrap;rounded=0;" parent="1" vertex="1">
          <mxGeometry x="860" y="882" width="140" height="30" as="geometry" />
        </mxCell>
        <mxCell id="Lu8lod0RweKCpHLHDI5q-23" value="Помещение результата добавления в курсор" style="text;html=1;align=center;verticalAlign=middle;whiteSpace=wrap;rounded=0;" parent="1" vertex="1">
          <mxGeometry x="860" y="932" width="140" height="30" as="geometry" />
        </mxCell>
        <mxCell id="Lu8lod0RweKCpHLHDI5q-24" value="Результат" style="text;html=1;align=center;verticalAlign=middle;whiteSpace=wrap;rounded=0;" parent="1" vertex="1">
          <mxGeometry x="650" y="908" width="80" height="30" as="geometry" />
        </mxCell>
        <mxCell id="Lu8lod0RweKCpHLHDI5q-27" value="" style="endArrow=classic;html=1;rounded=0;entryX=0.016;entryY=0.063;entryDx=0;entryDy=0;entryPerimeter=0;" parent="1" edge="1">
          <mxGeometry width="50" height="50" relative="1" as="geometry">
            <mxPoint x="440" y="317" as="sourcePoint" />
            <mxPoint x="561.2800000000002" y="317.0899999999999" as="targetPoint" />
          </mxGeometry>
        </mxCell>
        <mxCell id="Lu8lod0RweKCpHLHDI5q-28" value="Запрос на вывод номенклатуры" style="text;html=1;align=center;verticalAlign=middle;whiteSpace=wrap;rounded=0;" parent="1" vertex="1">
          <mxGeometry x="470" y="260" width="80" height="50" as="geometry" />
        </mxCell>
        <mxCell id="Lu8lod0RweKCpHLHDI5q-29" value="model_route" style="rounded=0;whiteSpace=wrap;html=1;" parent="1" vertex="1">
          <mxGeometry x="560" y="300" width="80" height="290" as="geometry" />
        </mxCell>
        <mxCell id="Lu8lod0RweKCpHLHDI5q-30" value="sql_provider" style="rounded=0;whiteSpace=wrap;html=1;" parent="1" vertex="1">
          <mxGeometry x="730" y="322" width="80" height="40" as="geometry" />
        </mxCell>
        <mxCell id="Lu8lod0RweKCpHLHDI5q-31" value="select" style="rounded=0;whiteSpace=wrap;html=1;" parent="1" vertex="1">
          <mxGeometry x="730" y="402" width="80" height="160" as="geometry" />
        </mxCell>
        <mxCell id="Lu8lod0RweKCpHLHDI5q-32" value="DBcm" style="rounded=0;whiteSpace=wrap;html=1;" parent="1" vertex="1">
          <mxGeometry x="890" y="442" width="80" height="40" as="geometry" />
        </mxCell>
        <mxCell id="Lu8lod0RweKCpHLHDI5q-33" value="СУБД" style="strokeWidth=2;html=1;shape=mxgraph.flowchart.database;whiteSpace=wrap;" parent="1" vertex="1">
          <mxGeometry x="1090" y="432" width="90" height="130" as="geometry" />
        </mxCell>
        <mxCell id="Lu8lod0RweKCpHLHDI5q-34" value="" style="endArrow=classic;html=1;rounded=0;" parent="1" edge="1">
          <mxGeometry width="50" height="50" relative="1" as="geometry">
            <mxPoint x="640" y="332" as="sourcePoint" />
            <mxPoint x="730" y="332" as="targetPoint" />
          </mxGeometry>
        </mxCell>
        <mxCell id="Lu8lod0RweKCpHLHDI5q-35" value="" style="endArrow=classic;html=1;rounded=0;" parent="1" edge="1">
          <mxGeometry width="50" height="50" relative="1" as="geometry">
            <mxPoint x="730" y="352" as="sourcePoint" />
            <mxPoint x="640" y="352" as="targetPoint" />
          </mxGeometry>
        </mxCell>
        <mxCell id="Lu8lod0RweKCpHLHDI5q-36" value="" style="endArrow=classic;html=1;rounded=0;" parent="1" edge="1">
          <mxGeometry width="50" height="50" relative="1" as="geometry">
            <mxPoint x="640" y="422" as="sourcePoint" />
            <mxPoint x="730" y="422" as="targetPoint" />
          </mxGeometry>
        </mxCell>
        <mxCell id="Lu8lod0RweKCpHLHDI5q-37" value="" style="endArrow=classic;html=1;rounded=0;" parent="1" edge="1">
          <mxGeometry width="50" height="50" relative="1" as="geometry">
            <mxPoint x="810" y="452" as="sourcePoint" />
            <mxPoint x="890" y="452" as="targetPoint" />
          </mxGeometry>
        </mxCell>
        <mxCell id="Lu8lod0RweKCpHLHDI5q-38" value="" style="endArrow=classic;html=1;rounded=0;" parent="1" edge="1">
          <mxGeometry width="50" height="50" relative="1" as="geometry">
            <mxPoint x="890" y="472" as="sourcePoint" />
            <mxPoint x="810" y="472" as="targetPoint" />
          </mxGeometry>
        </mxCell>
        <mxCell id="Lu8lod0RweKCpHLHDI5q-39" value="" style="endArrow=classic;html=1;rounded=0;entryX=0;entryY=0.154;entryDx=0;entryDy=0;entryPerimeter=0;" parent="1" target="Lu8lod0RweKCpHLHDI5q-33" edge="1">
          <mxGeometry width="50" height="50" relative="1" as="geometry">
            <mxPoint x="970" y="452" as="sourcePoint" />
            <mxPoint x="1050" y="452" as="targetPoint" />
          </mxGeometry>
        </mxCell>
        <mxCell id="Lu8lod0RweKCpHLHDI5q-40" value="" style="endArrow=classic;html=1;rounded=0;exitX=0;exitY=0.308;exitDx=0;exitDy=0;exitPerimeter=0;" parent="1" source="Lu8lod0RweKCpHLHDI5q-33" edge="1">
          <mxGeometry width="50" height="50" relative="1" as="geometry">
            <mxPoint x="1050" y="472" as="sourcePoint" />
            <mxPoint x="970" y="472" as="targetPoint" />
          </mxGeometry>
        </mxCell>
        <mxCell id="Lu8lod0RweKCpHLHDI5q-41" value="" style="endArrow=classic;html=1;rounded=0;entryX=0;entryY=0.692;entryDx=0;entryDy=0;entryPerimeter=0;" parent="1" target="Lu8lod0RweKCpHLHDI5q-33" edge="1">
          <mxGeometry width="50" height="50" relative="1" as="geometry">
            <mxPoint x="810" y="522" as="sourcePoint" />
            <mxPoint x="890" y="522" as="targetPoint" />
          </mxGeometry>
        </mxCell>
        <mxCell id="Lu8lod0RweKCpHLHDI5q-42" value="" style="endArrow=classic;html=1;rounded=0;exitX=0;exitY=0.846;exitDx=0;exitDy=0;exitPerimeter=0;" parent="1" source="Lu8lod0RweKCpHLHDI5q-33" edge="1">
          <mxGeometry width="50" height="50" relative="1" as="geometry">
            <mxPoint x="1050" y="542" as="sourcePoint" />
            <mxPoint x="810" y="542" as="targetPoint" />
          </mxGeometry>
        </mxCell>
        <mxCell id="Lu8lod0RweKCpHLHDI5q-43" value="" style="endArrow=classic;html=1;rounded=0;" parent="1" edge="1">
          <mxGeometry width="50" height="50" relative="1" as="geometry">
            <mxPoint x="730" y="552" as="sourcePoint" />
            <mxPoint x="640" y="552" as="targetPoint" />
          </mxGeometry>
        </mxCell>
        <mxCell id="Lu8lod0RweKCpHLHDI5q-44" value="Параметры запроса" style="text;html=1;align=center;verticalAlign=middle;whiteSpace=wrap;rounded=0;" parent="1" vertex="1">
          <mxGeometry x="650" y="300" width="80" height="30" as="geometry" />
        </mxCell>
        <mxCell id="Lu8lod0RweKCpHLHDI5q-45" value="SQL-запрос" style="text;html=1;align=center;verticalAlign=middle;whiteSpace=wrap;rounded=0;" parent="1" vertex="1">
          <mxGeometry x="650" y="355" width="80" height="26" as="geometry" />
        </mxCell>
        <mxCell id="Lu8lod0RweKCpHLHDI5q-46" value="SQL-запрос" style="text;html=1;align=center;verticalAlign=middle;whiteSpace=wrap;rounded=0;" parent="1" vertex="1">
          <mxGeometry x="650" y="392" width="80" height="26" as="geometry" />
        </mxCell>
        <mxCell id="Lu8lod0RweKCpHLHDI5q-47" value="Запрос соединения" style="text;html=1;align=center;verticalAlign=middle;whiteSpace=wrap;rounded=0;" parent="1" vertex="1">
          <mxGeometry x="810" y="422" width="80" height="30" as="geometry" />
        </mxCell>
        <mxCell id="Lu8lod0RweKCpHLHDI5q-48" value="Курсор" style="text;html=1;align=center;verticalAlign=middle;whiteSpace=wrap;rounded=0;" parent="1" vertex="1">
          <mxGeometry x="810" y="472" width="80" height="30" as="geometry" />
        </mxCell>
        <mxCell id="Lu8lod0RweKCpHLHDI5q-49" value="Подключение" style="text;html=1;align=center;verticalAlign=middle;whiteSpace=wrap;rounded=0;" parent="1" vertex="1">
          <mxGeometry x="970" y="422" width="80" height="30" as="geometry" />
        </mxCell>
        <mxCell id="Lu8lod0RweKCpHLHDI5q-50" value="Курсор" style="text;html=1;align=center;verticalAlign=middle;whiteSpace=wrap;rounded=0;" parent="1" vertex="1">
          <mxGeometry x="970" y="472" width="80" height="30" as="geometry" />
        </mxCell>
        <mxCell id="Lu8lod0RweKCpHLHDI5q-51" value="Выполнение запроса" style="text;html=1;align=center;verticalAlign=middle;whiteSpace=wrap;rounded=0;" parent="1" vertex="1">
          <mxGeometry x="860" y="492" width="140" height="30" as="geometry" />
        </mxCell>
        <mxCell id="Lu8lod0RweKCpHLHDI5q-52" value="Помещение результата поиска в курсор" style="text;html=1;align=center;verticalAlign=middle;whiteSpace=wrap;rounded=0;" parent="1" vertex="1">
          <mxGeometry x="860" y="542" width="140" height="30" as="geometry" />
        </mxCell>
        <mxCell id="Lu8lod0RweKCpHLHDI5q-53" value="Результат" style="text;html=1;align=center;verticalAlign=middle;whiteSpace=wrap;rounded=0;" parent="1" vertex="1">
          <mxGeometry x="650" y="518" width="80" height="30" as="geometry" />
        </mxCell>
        <mxCell id="Lu8lod0RweKCpHLHDI5q-56" value="" style="endArrow=classic;html=1;rounded=0;" parent="1" edge="1">
          <mxGeometry width="50" height="50" relative="1" as="geometry">
            <mxPoint x="560" y="578" as="sourcePoint" />
            <mxPoint x="440" y="578" as="targetPoint" />
          </mxGeometry>
        </mxCell>
        <mxCell id="Lu8lod0RweKCpHLHDI5q-57" value="Список номенклатуры" style="text;html=1;align=center;verticalAlign=middle;whiteSpace=wrap;rounded=0;" parent="1" vertex="1">
          <mxGeometry x="470" y="540" width="80" height="30" as="geometry" />
        </mxCell>
        <mxCell id="Lu8lod0RweKCpHLHDI5q-58" value="" style="endArrow=classic;html=1;rounded=0;entryX=0.016;entryY=0.063;entryDx=0;entryDy=0;entryPerimeter=0;" parent="1" edge="1">
          <mxGeometry width="50" height="50" relative="1" as="geometry">
            <mxPoint x="440" y="1087" as="sourcePoint" />
            <mxPoint x="561.2800000000002" y="1087.09" as="targetPoint" />
          </mxGeometry>
        </mxCell>
        <mxCell id="Lu8lod0RweKCpHLHDI5q-59" value="Запрос на вывод номенклатуры" style="text;html=1;align=center;verticalAlign=middle;whiteSpace=wrap;rounded=0;" parent="1" vertex="1">
          <mxGeometry x="470" y="1030" width="80" height="50" as="geometry" />
        </mxCell>
        <mxCell id="Lu8lod0RweKCpHLHDI5q-60" value="" style="endArrow=classic;html=1;rounded=0;" parent="1" edge="1">
          <mxGeometry width="50" height="50" relative="1" as="geometry">
            <mxPoint x="560" y="1138" as="sourcePoint" />
            <mxPoint x="440" y="1138" as="targetPoint" />
          </mxGeometry>
        </mxCell>
        <mxCell id="Lu8lod0RweKCpHLHDI5q-61" value="Список номенклатуры" style="text;html=1;align=center;verticalAlign=middle;whiteSpace=wrap;rounded=0;" parent="1" vertex="1">
          <mxGeometry x="470" y="1100" width="80" height="30" as="geometry" />
        </mxCell>
        <mxCell id="Lu8lod0RweKCpHLHDI5q-62" value="&lt;font style=&quot;font-size: 20px;&quot;&gt;(1)&lt;/font&gt;" style="rounded=1;whiteSpace=wrap;html=1;" parent="1" vertex="1">
          <mxGeometry x="560" y="1070" width="120" height="80" as="geometry" />
        </mxCell>
        <mxCell id="Lu8lod0RweKCpHLHDI5q-73" value="" style="endArrow=classic;html=1;rounded=0;entryX=0;entryY=0.051;entryDx=0;entryDy=0;entryPerimeter=0;" parent="1" edge="1">
          <mxGeometry width="50" height="50" relative="1" as="geometry">
            <mxPoint x="40" y="1250" as="sourcePoint" />
            <mxPoint x="360" y="1250.09" as="targetPoint" />
          </mxGeometry>
        </mxCell>
        <mxCell id="Lu8lod0RweKCpHLHDI5q-74" value="Пользователь авторизован в качестве менеджера" style="text;html=1;align=center;verticalAlign=middle;whiteSpace=wrap;rounded=0;" parent="1" vertex="1">
          <mxGeometry x="80" y="1220" width="200" height="30" as="geometry" />
        </mxCell>
        <mxCell id="Lu8lod0RweKCpHLHDI5q-75" value="route" style="rounded=0;whiteSpace=wrap;html=1;" parent="1" vertex="1">
          <mxGeometry x="360" y="1220" width="80" height="380" as="geometry" />
        </mxCell>
        <mxCell id="Lu8lod0RweKCpHLHDI5q-91" value="" style="endArrow=classic;html=1;rounded=0;exitX=0;exitY=0.136;exitDx=0;exitDy=0;exitPerimeter=0;" parent="1" edge="1">
          <mxGeometry width="50" height="50" relative="1" as="geometry">
            <mxPoint x="360" y="1300.24" as="sourcePoint" />
            <mxPoint x="240" y="1300" as="targetPoint" />
          </mxGeometry>
        </mxCell>
        <mxCell id="Lu8lod0RweKCpHLHDI5q-92" value="storage.html" style="rounded=0;whiteSpace=wrap;html=1;" parent="1" vertex="1">
          <mxGeometry x="120" y="1280" width="120" height="40" as="geometry" />
        </mxCell>
        <mxCell id="Lu8lod0RweKCpHLHDI5q-93" value="" style="endArrow=classic;html=1;rounded=0;" parent="1" edge="1">
          <mxGeometry width="50" height="50" relative="1" as="geometry">
            <mxPoint x="120" y="1300" as="sourcePoint" />
            <mxPoint x="40" y="1300" as="targetPoint" />
          </mxGeometry>
        </mxCell>
        <mxCell id="Lu8lod0RweKCpHLHDI5q-94" value="" style="endArrow=classic;html=1;rounded=0;" parent="1" edge="1">
          <mxGeometry width="50" height="50" relative="1" as="geometry">
            <mxPoint x="40" y="1360" as="sourcePoint" />
            <mxPoint x="360" y="1361" as="targetPoint" />
          </mxGeometry>
        </mxCell>
        <mxCell id="Lu8lod0RweKCpHLHDI5q-95" value="Страница с выбором действий" style="text;html=1;align=center;verticalAlign=middle;whiteSpace=wrap;rounded=0;" parent="1" vertex="1">
          <mxGeometry x="240" y="1256" width="100" height="41" as="geometry" />
        </mxCell>
        <mxCell id="Lu8lod0RweKCpHLHDI5q-96" value="HTML-страница" style="text;html=1;align=center;verticalAlign=middle;whiteSpace=wrap;rounded=0;" parent="1" vertex="1">
          <mxGeometry x="40" y="1270" width="80" height="27" as="geometry" />
        </mxCell>
        <mxCell id="Lu8lod0RweKCpHLHDI5q-97" value="Переход к форме добавления товара в номенклатуру" style="text;html=1;align=center;verticalAlign=middle;whiteSpace=wrap;rounded=0;" parent="1" vertex="1">
          <mxGeometry x="80" y="1330" width="200" height="30" as="geometry" />
        </mxCell>
        <mxCell id="Lu8lod0RweKCpHLHDI5q-109" value="" style="endArrow=classic;html=1;rounded=0;exitX=0;exitY=0.136;exitDx=0;exitDy=0;exitPerimeter=0;" parent="1" edge="1">
          <mxGeometry width="50" height="50" relative="1" as="geometry">
            <mxPoint x="360" y="1460.24" as="sourcePoint" />
            <mxPoint x="240" y="1460" as="targetPoint" />
          </mxGeometry>
        </mxCell>
        <mxCell id="Lu8lod0RweKCpHLHDI5q-110" value="add_nomenklatura&lt;div&gt;.html&lt;/div&gt;" style="rounded=0;whiteSpace=wrap;html=1;" parent="1" vertex="1">
          <mxGeometry x="120" y="1440" width="120" height="40" as="geometry" />
        </mxCell>
        <mxCell id="Lu8lod0RweKCpHLHDI5q-111" value="Форма ввода данных" style="text;html=1;align=center;verticalAlign=middle;whiteSpace=wrap;rounded=0;" parent="1" vertex="1">
          <mxGeometry x="256" y="1430" width="80" height="27" as="geometry" />
        </mxCell>
        <mxCell id="Lu8lod0RweKCpHLHDI5q-112" value="HTML-страница" style="text;html=1;align=center;verticalAlign=middle;whiteSpace=wrap;rounded=0;" parent="1" vertex="1">
          <mxGeometry x="40" y="1430" width="80" height="27" as="geometry" />
        </mxCell>
        <mxCell id="Lu8lod0RweKCpHLHDI5q-113" value="" style="endArrow=classic;html=1;rounded=0;" parent="1" edge="1">
          <mxGeometry width="50" height="50" relative="1" as="geometry">
            <mxPoint x="120" y="1460" as="sourcePoint" />
            <mxPoint x="40" y="1460" as="targetPoint" />
          </mxGeometry>
        </mxCell>
        <mxCell id="Lu8lod0RweKCpHLHDI5q-114" value="" style="endArrow=classic;html=1;rounded=0;" parent="1" edge="1">
          <mxGeometry width="50" height="50" relative="1" as="geometry">
            <mxPoint x="40" y="1520" as="sourcePoint" />
            <mxPoint x="360" y="1521" as="targetPoint" />
          </mxGeometry>
        </mxCell>
        <mxCell id="Lu8lod0RweKCpHLHDI5q-115" value="Уже присутствующий товар в номенклатуре" style="text;html=1;align=center;verticalAlign=middle;whiteSpace=wrap;rounded=0;" parent="1" vertex="1">
          <mxGeometry x="80" y="1490" width="200" height="30" as="geometry" />
        </mxCell>
        <mxCell id="Lu8lod0RweKCpHLHDI5q-183" value="" style="endArrow=classic;html=1;rounded=0;entryX=0.016;entryY=0.063;entryDx=0;entryDy=0;entryPerimeter=0;" parent="1" edge="1">
          <mxGeometry width="50" height="50" relative="1" as="geometry">
            <mxPoint x="440" y="1377" as="sourcePoint" />
            <mxPoint x="561.2800000000002" y="1377.09" as="targetPoint" />
          </mxGeometry>
        </mxCell>
        <mxCell id="Lu8lod0RweKCpHLHDI5q-184" value="Запрос на вывод номенклатуры" style="text;html=1;align=center;verticalAlign=middle;whiteSpace=wrap;rounded=0;" parent="1" vertex="1">
          <mxGeometry x="470" y="1320" width="80" height="50" as="geometry" />
        </mxCell>
        <mxCell id="Lu8lod0RweKCpHLHDI5q-185" value="" style="endArrow=classic;html=1;rounded=0;" parent="1" edge="1">
          <mxGeometry width="50" height="50" relative="1" as="geometry">
            <mxPoint x="560" y="1428" as="sourcePoint" />
            <mxPoint x="440" y="1428" as="targetPoint" />
          </mxGeometry>
        </mxCell>
        <mxCell id="Lu8lod0RweKCpHLHDI5q-186" value="Список номенклатуры" style="text;html=1;align=center;verticalAlign=middle;whiteSpace=wrap;rounded=0;" parent="1" vertex="1">
          <mxGeometry x="470" y="1390" width="80" height="30" as="geometry" />
        </mxCell>
        <mxCell id="Lu8lod0RweKCpHLHDI5q-187" value="&lt;font style=&quot;font-size: 20px;&quot;&gt;(1)&lt;/font&gt;" style="rounded=1;whiteSpace=wrap;html=1;" parent="1" vertex="1">
          <mxGeometry x="560" y="1360" width="120" height="80" as="geometry" />
        </mxCell>
        <mxCell id="Lu8lod0RweKCpHLHDI5q-195" value="" style="endArrow=classic;html=1;rounded=0;" parent="1" edge="1">
          <mxGeometry width="50" height="50" relative="1" as="geometry">
            <mxPoint x="360" y="1571" as="sourcePoint" />
            <mxPoint x="40" y="1570" as="targetPoint" />
          </mxGeometry>
        </mxCell>
        <mxCell id="Lu8lod0RweKCpHLHDI5q-196" value="Сообщение что товар уже присутствует в номенклатуре" style="text;html=1;align=center;verticalAlign=middle;whiteSpace=wrap;rounded=0;" parent="1" vertex="1">
          <mxGeometry x="80" y="1540" width="200" height="30" as="geometry" />
        </mxCell>
        <mxCell id="Lu8lod0RweKCpHLHDI5q-198" value="(2)" style="text;html=1;align=center;verticalAlign=middle;whiteSpace=wrap;rounded=0;fontSize=30;fontStyle=1" parent="1" vertex="1">
          <mxGeometry x="920" y="690" width="40" height="30" as="geometry" />
        </mxCell>
        <mxCell id="Lu8lod0RweKCpHLHDI5q-200" value="" style="endArrow=classic;html=1;rounded=0;entryX=0;entryY=0.051;entryDx=0;entryDy=0;entryPerimeter=0;" parent="1" edge="1">
          <mxGeometry width="50" height="50" relative="1" as="geometry">
            <mxPoint x="40" y="1690" as="sourcePoint" />
            <mxPoint x="360" y="1690.0900000000001" as="targetPoint" />
          </mxGeometry>
        </mxCell>
        <mxCell id="Lu8lod0RweKCpHLHDI5q-201" value="Пользователь авторизован в качестве менеджера" style="text;html=1;align=center;verticalAlign=middle;whiteSpace=wrap;rounded=0;" parent="1" vertex="1">
          <mxGeometry x="80" y="1660" width="200" height="30" as="geometry" />
        </mxCell>
        <mxCell id="Lu8lod0RweKCpHLHDI5q-202" value="" style="endArrow=classic;html=1;rounded=0;exitX=0;exitY=0.136;exitDx=0;exitDy=0;exitPerimeter=0;" parent="1" edge="1">
          <mxGeometry width="50" height="50" relative="1" as="geometry">
            <mxPoint x="360" y="1740.2399999999998" as="sourcePoint" />
            <mxPoint x="240" y="1740" as="targetPoint" />
          </mxGeometry>
        </mxCell>
        <mxCell id="Lu8lod0RweKCpHLHDI5q-203" value="storage.html" style="rounded=0;whiteSpace=wrap;html=1;" parent="1" vertex="1">
          <mxGeometry x="120" y="1720" width="120" height="40" as="geometry" />
        </mxCell>
        <mxCell id="Lu8lod0RweKCpHLHDI5q-204" value="" style="endArrow=classic;html=1;rounded=0;" parent="1" edge="1">
          <mxGeometry width="50" height="50" relative="1" as="geometry">
            <mxPoint x="120" y="1740" as="sourcePoint" />
            <mxPoint x="40" y="1740" as="targetPoint" />
          </mxGeometry>
        </mxCell>
        <mxCell id="Lu8lod0RweKCpHLHDI5q-205" value="" style="endArrow=classic;html=1;rounded=0;" parent="1" edge="1">
          <mxGeometry width="50" height="50" relative="1" as="geometry">
            <mxPoint x="40" y="1800" as="sourcePoint" />
            <mxPoint x="360" y="1801" as="targetPoint" />
          </mxGeometry>
        </mxCell>
        <mxCell id="Lu8lod0RweKCpHLHDI5q-206" value="Страница с выбором действий" style="text;html=1;align=center;verticalAlign=middle;whiteSpace=wrap;rounded=0;" parent="1" vertex="1">
          <mxGeometry x="240" y="1696" width="100" height="41" as="geometry" />
        </mxCell>
        <mxCell id="Lu8lod0RweKCpHLHDI5q-207" value="HTML-страница" style="text;html=1;align=center;verticalAlign=middle;whiteSpace=wrap;rounded=0;" parent="1" vertex="1">
          <mxGeometry x="40" y="1710" width="80" height="27" as="geometry" />
        </mxCell>
        <mxCell id="Lu8lod0RweKCpHLHDI5q-208" value="Переход к форме добавления товара в номенклатуру" style="text;html=1;align=center;verticalAlign=middle;whiteSpace=wrap;rounded=0;" parent="1" vertex="1">
          <mxGeometry x="80" y="1770" width="200" height="30" as="geometry" />
        </mxCell>
        <mxCell id="Lu8lod0RweKCpHLHDI5q-209" value="" style="endArrow=classic;html=1;rounded=0;exitX=0;exitY=0.136;exitDx=0;exitDy=0;exitPerimeter=0;" parent="1" edge="1">
          <mxGeometry width="50" height="50" relative="1" as="geometry">
            <mxPoint x="360" y="1900.2399999999998" as="sourcePoint" />
            <mxPoint x="240" y="1900" as="targetPoint" />
          </mxGeometry>
        </mxCell>
        <mxCell id="Lu8lod0RweKCpHLHDI5q-210" value="add_nomenklatura&lt;div&gt;.html&lt;/div&gt;" style="rounded=0;whiteSpace=wrap;html=1;" parent="1" vertex="1">
          <mxGeometry x="120" y="1880" width="120" height="40" as="geometry" />
        </mxCell>
        <mxCell id="Lu8lod0RweKCpHLHDI5q-211" value="Форма ввода данных" style="text;html=1;align=center;verticalAlign=middle;whiteSpace=wrap;rounded=0;" parent="1" vertex="1">
          <mxGeometry x="256" y="1870" width="80" height="27" as="geometry" />
        </mxCell>
        <mxCell id="Lu8lod0RweKCpHLHDI5q-212" value="HTML-страница" style="text;html=1;align=center;verticalAlign=middle;whiteSpace=wrap;rounded=0;" parent="1" vertex="1">
          <mxGeometry x="40" y="1870" width="80" height="27" as="geometry" />
        </mxCell>
        <mxCell id="Lu8lod0RweKCpHLHDI5q-213" value="" style="endArrow=classic;html=1;rounded=0;" parent="1" edge="1">
          <mxGeometry width="50" height="50" relative="1" as="geometry">
            <mxPoint x="120" y="1900" as="sourcePoint" />
            <mxPoint x="40" y="1900" as="targetPoint" />
          </mxGeometry>
        </mxCell>
        <mxCell id="Lu8lod0RweKCpHLHDI5q-214" value="" style="endArrow=classic;html=1;rounded=0;" parent="1" edge="1">
          <mxGeometry width="50" height="50" relative="1" as="geometry">
            <mxPoint x="40" y="1960" as="sourcePoint" />
            <mxPoint x="360" y="1961" as="targetPoint" />
          </mxGeometry>
        </mxCell>
        <mxCell id="Lu8lod0RweKCpHLHDI5q-215" value="Незаполненное поле" style="text;html=1;align=center;verticalAlign=middle;whiteSpace=wrap;rounded=0;" parent="1" vertex="1">
          <mxGeometry x="80" y="1930" width="200" height="30" as="geometry" />
        </mxCell>
        <mxCell id="Lu8lod0RweKCpHLHDI5q-218" value="" style="endArrow=classic;html=1;rounded=0;entryX=0.016;entryY=0.063;entryDx=0;entryDy=0;entryPerimeter=0;" parent="1" edge="1">
          <mxGeometry width="50" height="50" relative="1" as="geometry">
            <mxPoint x="440" y="1817" as="sourcePoint" />
            <mxPoint x="561.2800000000002" y="1817.0900000000001" as="targetPoint" />
          </mxGeometry>
        </mxCell>
        <mxCell id="Lu8lod0RweKCpHLHDI5q-219" value="Запрос на вывод номенклатуры" style="text;html=1;align=center;verticalAlign=middle;whiteSpace=wrap;rounded=0;" parent="1" vertex="1">
          <mxGeometry x="470" y="1760" width="80" height="50" as="geometry" />
        </mxCell>
        <mxCell id="Lu8lod0RweKCpHLHDI5q-220" value="" style="endArrow=classic;html=1;rounded=0;" parent="1" edge="1">
          <mxGeometry width="50" height="50" relative="1" as="geometry">
            <mxPoint x="560" y="1868" as="sourcePoint" />
            <mxPoint x="440" y="1868" as="targetPoint" />
          </mxGeometry>
        </mxCell>
        <mxCell id="Lu8lod0RweKCpHLHDI5q-221" value="Список номенклатуры" style="text;html=1;align=center;verticalAlign=middle;whiteSpace=wrap;rounded=0;" parent="1" vertex="1">
          <mxGeometry x="470" y="1830" width="80" height="30" as="geometry" />
        </mxCell>
        <mxCell id="Lu8lod0RweKCpHLHDI5q-222" value="&lt;font style=&quot;font-size: 20px;&quot;&gt;(1)&lt;/font&gt;" style="rounded=1;whiteSpace=wrap;html=1;" parent="1" vertex="1">
          <mxGeometry x="560" y="1800" width="120" height="80" as="geometry" />
        </mxCell>
        <mxCell id="Lu8lod0RweKCpHLHDI5q-223" value="route" style="rounded=0;whiteSpace=wrap;html=1;" parent="1" vertex="1">
          <mxGeometry x="360" y="1660" width="80" height="370" as="geometry" />
        </mxCell>
        <mxCell id="Lu8lod0RweKCpHLHDI5q-234" value="" style="endArrow=classic;html=1;rounded=0;" parent="1" edge="1">
          <mxGeometry width="50" height="50" relative="1" as="geometry">
            <mxPoint x="360" y="2011" as="sourcePoint" />
            <mxPoint x="40" y="2010" as="targetPoint" />
          </mxGeometry>
        </mxCell>
        <mxCell id="Lu8lod0RweKCpHLHDI5q-235" value="Сообщение о незаполненном поле" style="text;html=1;align=center;verticalAlign=middle;whiteSpace=wrap;rounded=0;" parent="1" vertex="1">
          <mxGeometry x="80" y="1980" width="200" height="30" as="geometry" />
        </mxCell>
        <mxCell id="Lu8lod0RweKCpHLHDI5q-236" value="" style="endArrow=classic;html=1;rounded=0;entryX=0;entryY=0.051;entryDx=0;entryDy=0;entryPerimeter=0;" parent="1" edge="1">
          <mxGeometry width="50" height="50" relative="1" as="geometry">
            <mxPoint x="40" y="2100" as="sourcePoint" />
            <mxPoint x="360" y="2100.09" as="targetPoint" />
          </mxGeometry>
        </mxCell>
        <mxCell id="Lu8lod0RweKCpHLHDI5q-237" value="Пользователь авторизован в качестве менеджера" style="text;html=1;align=center;verticalAlign=middle;whiteSpace=wrap;rounded=0;" parent="1" vertex="1">
          <mxGeometry x="80" y="2070" width="200" height="30" as="geometry" />
        </mxCell>
        <mxCell id="Lu8lod0RweKCpHLHDI5q-238" value="" style="endArrow=classic;html=1;rounded=0;exitX=0;exitY=0.136;exitDx=0;exitDy=0;exitPerimeter=0;" parent="1" edge="1">
          <mxGeometry width="50" height="50" relative="1" as="geometry">
            <mxPoint x="360" y="2150.24" as="sourcePoint" />
            <mxPoint x="240" y="2150" as="targetPoint" />
          </mxGeometry>
        </mxCell>
        <mxCell id="Lu8lod0RweKCpHLHDI5q-239" value="storage.html" style="rounded=0;whiteSpace=wrap;html=1;" parent="1" vertex="1">
          <mxGeometry x="120" y="2130" width="120" height="40" as="geometry" />
        </mxCell>
        <mxCell id="Lu8lod0RweKCpHLHDI5q-240" value="" style="endArrow=classic;html=1;rounded=0;" parent="1" edge="1">
          <mxGeometry width="50" height="50" relative="1" as="geometry">
            <mxPoint x="120" y="2150" as="sourcePoint" />
            <mxPoint x="40" y="2150" as="targetPoint" />
          </mxGeometry>
        </mxCell>
        <mxCell id="Lu8lod0RweKCpHLHDI5q-241" value="" style="endArrow=classic;html=1;rounded=0;" parent="1" edge="1">
          <mxGeometry width="50" height="50" relative="1" as="geometry">
            <mxPoint x="40" y="2210" as="sourcePoint" />
            <mxPoint x="360" y="2211" as="targetPoint" />
          </mxGeometry>
        </mxCell>
        <mxCell id="Lu8lod0RweKCpHLHDI5q-242" value="Страница с выбором действий" style="text;html=1;align=center;verticalAlign=middle;whiteSpace=wrap;rounded=0;" parent="1" vertex="1">
          <mxGeometry x="240" y="2106" width="100" height="41" as="geometry" />
        </mxCell>
        <mxCell id="Lu8lod0RweKCpHLHDI5q-243" value="HTML-страница" style="text;html=1;align=center;verticalAlign=middle;whiteSpace=wrap;rounded=0;" parent="1" vertex="1">
          <mxGeometry x="40" y="2120" width="80" height="27" as="geometry" />
        </mxCell>
        <mxCell id="Lu8lod0RweKCpHLHDI5q-244" value="Переход к форме добавления товара в номенклатуру" style="text;html=1;align=center;verticalAlign=middle;whiteSpace=wrap;rounded=0;" parent="1" vertex="1">
          <mxGeometry x="80" y="2180" width="200" height="30" as="geometry" />
        </mxCell>
        <mxCell id="Lu8lod0RweKCpHLHDI5q-245" value="" style="endArrow=classic;html=1;rounded=0;exitX=0;exitY=0.136;exitDx=0;exitDy=0;exitPerimeter=0;" parent="1" edge="1">
          <mxGeometry width="50" height="50" relative="1" as="geometry">
            <mxPoint x="360" y="2310.24" as="sourcePoint" />
            <mxPoint x="240" y="2310" as="targetPoint" />
          </mxGeometry>
        </mxCell>
        <mxCell id="Lu8lod0RweKCpHLHDI5q-246" value="add_nomenklatura&lt;div&gt;.html&lt;/div&gt;" style="rounded=0;whiteSpace=wrap;html=1;" parent="1" vertex="1">
          <mxGeometry x="120" y="2290" width="120" height="40" as="geometry" />
        </mxCell>
        <mxCell id="Lu8lod0RweKCpHLHDI5q-247" value="Форма ввода данных" style="text;html=1;align=center;verticalAlign=middle;whiteSpace=wrap;rounded=0;" parent="1" vertex="1">
          <mxGeometry x="256" y="2280" width="80" height="27" as="geometry" />
        </mxCell>
        <mxCell id="Lu8lod0RweKCpHLHDI5q-248" value="HTML-страница" style="text;html=1;align=center;verticalAlign=middle;whiteSpace=wrap;rounded=0;" parent="1" vertex="1">
          <mxGeometry x="40" y="2280" width="80" height="27" as="geometry" />
        </mxCell>
        <mxCell id="Lu8lod0RweKCpHLHDI5q-249" value="" style="endArrow=classic;html=1;rounded=0;" parent="1" edge="1">
          <mxGeometry width="50" height="50" relative="1" as="geometry">
            <mxPoint x="120" y="2310" as="sourcePoint" />
            <mxPoint x="40" y="2310" as="targetPoint" />
          </mxGeometry>
        </mxCell>
        <mxCell id="Lu8lod0RweKCpHLHDI5q-250" value="" style="endArrow=classic;html=1;rounded=0;" parent="1" edge="1">
          <mxGeometry width="50" height="50" relative="1" as="geometry">
            <mxPoint x="40" y="2370" as="sourcePoint" />
            <mxPoint x="360" y="2371" as="targetPoint" />
          </mxGeometry>
        </mxCell>
        <mxCell id="Lu8lod0RweKCpHLHDI5q-251" value="Название, единица измерения, категория" style="text;html=1;align=center;verticalAlign=middle;whiteSpace=wrap;rounded=0;" parent="1" vertex="1">
          <mxGeometry x="80" y="2340" width="200" height="30" as="geometry" />
        </mxCell>
        <mxCell id="Lu8lod0RweKCpHLHDI5q-252" value="" style="endArrow=classic;html=1;rounded=0;entryX=0.016;entryY=0.063;entryDx=0;entryDy=0;entryPerimeter=0;" parent="1" edge="1">
          <mxGeometry width="50" height="50" relative="1" as="geometry">
            <mxPoint x="440" y="2227" as="sourcePoint" />
            <mxPoint x="561.2800000000002" y="2227.09" as="targetPoint" />
          </mxGeometry>
        </mxCell>
        <mxCell id="Lu8lod0RweKCpHLHDI5q-253" value="Запрос на вывод номенклатуры" style="text;html=1;align=center;verticalAlign=middle;whiteSpace=wrap;rounded=0;" parent="1" vertex="1">
          <mxGeometry x="470" y="2170" width="80" height="50" as="geometry" />
        </mxCell>
        <mxCell id="Lu8lod0RweKCpHLHDI5q-254" value="" style="endArrow=classic;html=1;rounded=0;" parent="1" edge="1">
          <mxGeometry width="50" height="50" relative="1" as="geometry">
            <mxPoint x="560" y="2278" as="sourcePoint" />
            <mxPoint x="440" y="2278" as="targetPoint" />
          </mxGeometry>
        </mxCell>
        <mxCell id="Lu8lod0RweKCpHLHDI5q-255" value="Список номенклатуры" style="text;html=1;align=center;verticalAlign=middle;whiteSpace=wrap;rounded=0;" parent="1" vertex="1">
          <mxGeometry x="470" y="2240" width="80" height="30" as="geometry" />
        </mxCell>
        <mxCell id="Lu8lod0RweKCpHLHDI5q-256" value="&lt;font style=&quot;font-size: 20px;&quot;&gt;(1)&lt;/font&gt;" style="rounded=1;whiteSpace=wrap;html=1;" parent="1" vertex="1">
          <mxGeometry x="560" y="2210" width="120" height="80" as="geometry" />
        </mxCell>
        <mxCell id="Lu8lod0RweKCpHLHDI5q-257" value="route" style="rounded=0;whiteSpace=wrap;html=1;" parent="1" vertex="1">
          <mxGeometry x="360" y="2070" width="80" height="420" as="geometry" />
        </mxCell>
        <mxCell id="Lu8lod0RweKCpHLHDI5q-261" value="" style="endArrow=classic;html=1;rounded=0;entryX=0.016;entryY=0.063;entryDx=0;entryDy=0;entryPerimeter=0;" parent="1" edge="1">
          <mxGeometry width="50" height="50" relative="1" as="geometry">
            <mxPoint x="440" y="2400" as="sourcePoint" />
            <mxPoint x="561.2800000000002" y="2400.09" as="targetPoint" />
          </mxGeometry>
        </mxCell>
        <mxCell id="Lu8lod0RweKCpHLHDI5q-262" value="Параметры запроса на добавление" style="text;html=1;align=center;verticalAlign=middle;whiteSpace=wrap;rounded=0;" parent="1" vertex="1">
          <mxGeometry x="470" y="2350" width="80" height="40" as="geometry" />
        </mxCell>
        <mxCell id="Lu8lod0RweKCpHLHDI5q-263" value="" style="endArrow=classic;html=1;rounded=0;" parent="1" edge="1">
          <mxGeometry width="50" height="50" relative="1" as="geometry">
            <mxPoint x="560" y="2448" as="sourcePoint" />
            <mxPoint x="440" y="2448" as="targetPoint" />
          </mxGeometry>
        </mxCell>
        <mxCell id="Lu8lod0RweKCpHLHDI5q-264" value="Ошибка" style="text;html=1;align=center;verticalAlign=middle;whiteSpace=wrap;rounded=0;" parent="1" vertex="1">
          <mxGeometry x="470" y="2410" width="80" height="30" as="geometry" />
        </mxCell>
        <mxCell id="Lu8lod0RweKCpHLHDI5q-269" value="&lt;font style=&quot;font-size: 20px;&quot;&gt;(2)&lt;/font&gt;" style="rounded=1;whiteSpace=wrap;html=1;" parent="1" vertex="1">
          <mxGeometry x="560" y="2380" width="120" height="80" as="geometry" />
        </mxCell>
        <mxCell id="Lu8lod0RweKCpHLHDI5q-275" value="" style="endArrow=classic;html=1;rounded=0;" parent="1" edge="1">
          <mxGeometry width="50" height="50" relative="1" as="geometry">
            <mxPoint x="360" y="2471" as="sourcePoint" />
            <mxPoint x="40" y="2470" as="targetPoint" />
          </mxGeometry>
        </mxCell>
        <mxCell id="Lu8lod0RweKCpHLHDI5q-276" value="Сообщение об ошибке добавления товара" style="text;html=1;align=center;verticalAlign=middle;whiteSpace=wrap;rounded=0;" parent="1" vertex="1">
          <mxGeometry x="80" y="2440" width="200" height="30" as="geometry" />
        </mxCell>
        <mxCell id="Lu8lod0RweKCpHLHDI5q-277" value="" style="endArrow=classic;html=1;rounded=0;entryX=0;entryY=0.051;entryDx=0;entryDy=0;entryPerimeter=0;" parent="1" edge="1">
          <mxGeometry width="50" height="50" relative="1" as="geometry">
            <mxPoint x="40" y="2570" as="sourcePoint" />
            <mxPoint x="360" y="2570.09" as="targetPoint" />
          </mxGeometry>
        </mxCell>
        <mxCell id="Lu8lod0RweKCpHLHDI5q-278" value="Пользователь авторизован в качестве менеджера" style="text;html=1;align=center;verticalAlign=middle;whiteSpace=wrap;rounded=0;" parent="1" vertex="1">
          <mxGeometry x="80" y="2540" width="200" height="30" as="geometry" />
        </mxCell>
        <mxCell id="Lu8lod0RweKCpHLHDI5q-279" value="" style="endArrow=classic;html=1;rounded=0;exitX=0;exitY=0.136;exitDx=0;exitDy=0;exitPerimeter=0;" parent="1" edge="1">
          <mxGeometry width="50" height="50" relative="1" as="geometry">
            <mxPoint x="360" y="2620.24" as="sourcePoint" />
            <mxPoint x="240" y="2620" as="targetPoint" />
          </mxGeometry>
        </mxCell>
        <mxCell id="Lu8lod0RweKCpHLHDI5q-280" value="storage.html" style="rounded=0;whiteSpace=wrap;html=1;" parent="1" vertex="1">
          <mxGeometry x="120" y="2600" width="120" height="40" as="geometry" />
        </mxCell>
        <mxCell id="Lu8lod0RweKCpHLHDI5q-281" value="" style="endArrow=classic;html=1;rounded=0;" parent="1" edge="1">
          <mxGeometry width="50" height="50" relative="1" as="geometry">
            <mxPoint x="120" y="2620" as="sourcePoint" />
            <mxPoint x="40" y="2620" as="targetPoint" />
          </mxGeometry>
        </mxCell>
        <mxCell id="Lu8lod0RweKCpHLHDI5q-282" value="" style="endArrow=classic;html=1;rounded=0;" parent="1" edge="1">
          <mxGeometry width="50" height="50" relative="1" as="geometry">
            <mxPoint x="40" y="2680" as="sourcePoint" />
            <mxPoint x="360" y="2681" as="targetPoint" />
          </mxGeometry>
        </mxCell>
        <mxCell id="Lu8lod0RweKCpHLHDI5q-283" value="Страница с выбором действий" style="text;html=1;align=center;verticalAlign=middle;whiteSpace=wrap;rounded=0;" parent="1" vertex="1">
          <mxGeometry x="240" y="2576" width="100" height="41" as="geometry" />
        </mxCell>
        <mxCell id="Lu8lod0RweKCpHLHDI5q-284" value="HTML-страница" style="text;html=1;align=center;verticalAlign=middle;whiteSpace=wrap;rounded=0;" parent="1" vertex="1">
          <mxGeometry x="40" y="2590" width="80" height="27" as="geometry" />
        </mxCell>
        <mxCell id="Lu8lod0RweKCpHLHDI5q-285" value="Переход к форме добавления товара в номенклатуру" style="text;html=1;align=center;verticalAlign=middle;whiteSpace=wrap;rounded=0;" parent="1" vertex="1">
          <mxGeometry x="80" y="2650" width="200" height="30" as="geometry" />
        </mxCell>
        <mxCell id="Lu8lod0RweKCpHLHDI5q-286" value="" style="endArrow=classic;html=1;rounded=0;exitX=0;exitY=0.136;exitDx=0;exitDy=0;exitPerimeter=0;" parent="1" edge="1">
          <mxGeometry width="50" height="50" relative="1" as="geometry">
            <mxPoint x="360" y="2780.24" as="sourcePoint" />
            <mxPoint x="240" y="2780" as="targetPoint" />
          </mxGeometry>
        </mxCell>
        <mxCell id="Lu8lod0RweKCpHLHDI5q-287" value="add_nomenklatura&lt;div&gt;.html&lt;/div&gt;" style="rounded=0;whiteSpace=wrap;html=1;" parent="1" vertex="1">
          <mxGeometry x="120" y="2760" width="120" height="40" as="geometry" />
        </mxCell>
        <mxCell id="Lu8lod0RweKCpHLHDI5q-288" value="Форма ввода данных" style="text;html=1;align=center;verticalAlign=middle;whiteSpace=wrap;rounded=0;" parent="1" vertex="1">
          <mxGeometry x="256" y="2750" width="80" height="27" as="geometry" />
        </mxCell>
        <mxCell id="Lu8lod0RweKCpHLHDI5q-289" value="HTML-страница" style="text;html=1;align=center;verticalAlign=middle;whiteSpace=wrap;rounded=0;" parent="1" vertex="1">
          <mxGeometry x="40" y="2750" width="80" height="27" as="geometry" />
        </mxCell>
        <mxCell id="Lu8lod0RweKCpHLHDI5q-290" value="" style="endArrow=classic;html=1;rounded=0;" parent="1" edge="1">
          <mxGeometry width="50" height="50" relative="1" as="geometry">
            <mxPoint x="120" y="2780" as="sourcePoint" />
            <mxPoint x="40" y="2780" as="targetPoint" />
          </mxGeometry>
        </mxCell>
        <mxCell id="Lu8lod0RweKCpHLHDI5q-291" value="" style="endArrow=classic;html=1;rounded=0;" parent="1" edge="1">
          <mxGeometry width="50" height="50" relative="1" as="geometry">
            <mxPoint x="40" y="2840" as="sourcePoint" />
            <mxPoint x="360" y="2841" as="targetPoint" />
          </mxGeometry>
        </mxCell>
        <mxCell id="Lu8lod0RweKCpHLHDI5q-292" value="Название, единица измерения, категория" style="text;html=1;align=center;verticalAlign=middle;whiteSpace=wrap;rounded=0;" parent="1" vertex="1">
          <mxGeometry x="80" y="2810" width="200" height="30" as="geometry" />
        </mxCell>
        <mxCell id="Lu8lod0RweKCpHLHDI5q-293" value="" style="endArrow=classic;html=1;rounded=0;entryX=0.016;entryY=0.063;entryDx=0;entryDy=0;entryPerimeter=0;" parent="1" edge="1">
          <mxGeometry width="50" height="50" relative="1" as="geometry">
            <mxPoint x="440" y="2697" as="sourcePoint" />
            <mxPoint x="561.2800000000002" y="2697.09" as="targetPoint" />
          </mxGeometry>
        </mxCell>
        <mxCell id="Lu8lod0RweKCpHLHDI5q-294" value="Запрос на вывод номенклатуры" style="text;html=1;align=center;verticalAlign=middle;whiteSpace=wrap;rounded=0;" parent="1" vertex="1">
          <mxGeometry x="470" y="2640" width="80" height="50" as="geometry" />
        </mxCell>
        <mxCell id="Lu8lod0RweKCpHLHDI5q-295" value="" style="endArrow=classic;html=1;rounded=0;" parent="1" edge="1">
          <mxGeometry width="50" height="50" relative="1" as="geometry">
            <mxPoint x="560" y="2748" as="sourcePoint" />
            <mxPoint x="440" y="2748" as="targetPoint" />
          </mxGeometry>
        </mxCell>
        <mxCell id="Lu8lod0RweKCpHLHDI5q-296" value="Список номенклатуры" style="text;html=1;align=center;verticalAlign=middle;whiteSpace=wrap;rounded=0;" parent="1" vertex="1">
          <mxGeometry x="470" y="2710" width="80" height="30" as="geometry" />
        </mxCell>
        <mxCell id="Lu8lod0RweKCpHLHDI5q-297" value="&lt;font style=&quot;font-size: 20px;&quot;&gt;(1)&lt;/font&gt;" style="rounded=1;whiteSpace=wrap;html=1;" parent="1" vertex="1">
          <mxGeometry x="560" y="2680" width="120" height="80" as="geometry" />
        </mxCell>
        <mxCell id="Lu8lod0RweKCpHLHDI5q-298" value="route" style="rounded=0;whiteSpace=wrap;html=1;" parent="1" vertex="1">
          <mxGeometry x="360" y="2540" width="80" height="710" as="geometry" />
        </mxCell>
        <mxCell id="Lu8lod0RweKCpHLHDI5q-299" value="model_route" style="rounded=0;whiteSpace=wrap;html=1;" parent="1" vertex="1">
          <mxGeometry x="560" y="2840" width="80" height="260" as="geometry" />
        </mxCell>
        <mxCell id="Lu8lod0RweKCpHLHDI5q-300" value="" style="endArrow=classic;html=1;rounded=0;entryX=0.016;entryY=0.063;entryDx=0;entryDy=0;entryPerimeter=0;" parent="1" edge="1">
          <mxGeometry width="50" height="50" relative="1" as="geometry">
            <mxPoint x="440" y="2867" as="sourcePoint" />
            <mxPoint x="561.2800000000002" y="2867.09" as="targetPoint" />
          </mxGeometry>
        </mxCell>
        <mxCell id="Lu8lod0RweKCpHLHDI5q-301" value="Параметры запроса" style="text;html=1;align=center;verticalAlign=middle;whiteSpace=wrap;rounded=0;" parent="1" vertex="1">
          <mxGeometry x="470" y="2830" width="80" height="30" as="geometry" />
        </mxCell>
        <mxCell id="Lu8lod0RweKCpHLHDI5q-302" value="" style="endArrow=classic;html=1;rounded=0;" parent="1" edge="1">
          <mxGeometry width="50" height="50" relative="1" as="geometry">
            <mxPoint x="560" y="3078" as="sourcePoint" />
            <mxPoint x="440" y="3078" as="targetPoint" />
          </mxGeometry>
        </mxCell>
        <mxCell id="Lu8lod0RweKCpHLHDI5q-303" value="Результат" style="text;html=1;align=center;verticalAlign=middle;whiteSpace=wrap;rounded=0;" parent="1" vertex="1">
          <mxGeometry x="470" y="3040" width="80" height="30" as="geometry" />
        </mxCell>
        <mxCell id="Lu8lod0RweKCpHLHDI5q-304" value="" style="endArrow=classic;html=1;rounded=0;entryX=0.016;entryY=0.063;entryDx=0;entryDy=0;entryPerimeter=0;" parent="1" edge="1">
          <mxGeometry width="50" height="50" relative="1" as="geometry">
            <mxPoint x="640" y="2887" as="sourcePoint" />
            <mxPoint x="761.2800000000002" y="2887.09" as="targetPoint" />
          </mxGeometry>
        </mxCell>
        <mxCell id="Lu8lod0RweKCpHLHDI5q-305" value="Параметры запроса" style="text;html=1;align=center;verticalAlign=middle;whiteSpace=wrap;rounded=0;" parent="1" vertex="1">
          <mxGeometry x="670" y="2830" width="80" height="50" as="geometry" />
        </mxCell>
        <mxCell id="Lu8lod0RweKCpHLHDI5q-306" value="" style="endArrow=classic;html=1;rounded=0;" parent="1" edge="1">
          <mxGeometry width="50" height="50" relative="1" as="geometry">
            <mxPoint x="760" y="2938" as="sourcePoint" />
            <mxPoint x="640" y="2938" as="targetPoint" />
          </mxGeometry>
        </mxCell>
        <mxCell id="Lu8lod0RweKCpHLHDI5q-307" value="Пустой результат" style="text;html=1;align=center;verticalAlign=middle;whiteSpace=wrap;rounded=0;" parent="1" vertex="1">
          <mxGeometry x="670" y="2900" width="80" height="30" as="geometry" />
        </mxCell>
        <mxCell id="Lu8lod0RweKCpHLHDI5q-308" value="&lt;font style=&quot;font-size: 20px;&quot;&gt;(2)&lt;/font&gt;" style="rounded=1;whiteSpace=wrap;html=1;" parent="1" vertex="1">
          <mxGeometry x="760" y="2870" width="120" height="80" as="geometry" />
        </mxCell>
        <mxCell id="Lu8lod0RweKCpHLHDI5q-309" value="" style="endArrow=classic;html=1;rounded=0;entryX=0.016;entryY=0.063;entryDx=0;entryDy=0;entryPerimeter=0;" parent="1" edge="1">
          <mxGeometry width="50" height="50" relative="1" as="geometry">
            <mxPoint x="640" y="2997" as="sourcePoint" />
            <mxPoint x="761.2800000000002" y="2997.09" as="targetPoint" />
          </mxGeometry>
        </mxCell>
        <mxCell id="Lu8lod0RweKCpHLHDI5q-310" value="Параметры запроса" style="text;html=1;align=center;verticalAlign=middle;whiteSpace=wrap;rounded=0;" parent="1" vertex="1">
          <mxGeometry x="670" y="2940" width="80" height="50" as="geometry" />
        </mxCell>
        <mxCell id="Lu8lod0RweKCpHLHDI5q-311" value="" style="endArrow=classic;html=1;rounded=0;" parent="1" edge="1">
          <mxGeometry width="50" height="50" relative="1" as="geometry">
            <mxPoint x="760" y="3048" as="sourcePoint" />
            <mxPoint x="640" y="3048" as="targetPoint" />
          </mxGeometry>
        </mxCell>
        <mxCell id="Lu8lod0RweKCpHLHDI5q-312" value="Результат" style="text;html=1;align=center;verticalAlign=middle;whiteSpace=wrap;rounded=0;" parent="1" vertex="1">
          <mxGeometry x="670" y="3010" width="80" height="30" as="geometry" />
        </mxCell>
        <mxCell id="Lu8lod0RweKCpHLHDI5q-313" value="&lt;font style=&quot;font-size: 20px;&quot;&gt;(3)&lt;/font&gt;" style="rounded=1;whiteSpace=wrap;html=1;" parent="1" vertex="1">
          <mxGeometry x="760" y="2980" width="120" height="80" as="geometry" />
        </mxCell>
        <mxCell id="Lu8lod0RweKCpHLHDI5q-314" value="" style="endArrow=classic;html=1;rounded=0;" parent="1" edge="1">
          <mxGeometry width="50" height="50" relative="1" as="geometry">
            <mxPoint x="360" y="3231" as="sourcePoint" />
            <mxPoint x="40" y="3230" as="targetPoint" />
          </mxGeometry>
        </mxCell>
        <mxCell id="Lu8lod0RweKCpHLHDI5q-315" value="Сообщение об ошибке вывода товара после добавления" style="text;html=1;align=center;verticalAlign=middle;whiteSpace=wrap;rounded=0;" parent="1" vertex="1">
          <mxGeometry x="80" y="3200" width="200" height="30" as="geometry" />
        </mxCell>
        <mxCell id="Lu8lod0RweKCpHLHDI5q-316" value="" style="endArrow=classic;html=1;rounded=0;entryX=0.016;entryY=0.063;entryDx=0;entryDy=0;entryPerimeter=0;" parent="1" edge="1">
          <mxGeometry width="50" height="50" relative="1" as="geometry">
            <mxPoint x="440" y="3157" as="sourcePoint" />
            <mxPoint x="561.2800000000002" y="3157.09" as="targetPoint" />
          </mxGeometry>
        </mxCell>
        <mxCell id="Lu8lod0RweKCpHLHDI5q-317" value="Запрос на вывод номенклатуры" style="text;html=1;align=center;verticalAlign=middle;whiteSpace=wrap;rounded=0;" parent="1" vertex="1">
          <mxGeometry x="470" y="3100" width="80" height="50" as="geometry" />
        </mxCell>
        <mxCell id="Lu8lod0RweKCpHLHDI5q-318" value="" style="endArrow=classic;html=1;rounded=0;" parent="1" edge="1">
          <mxGeometry width="50" height="50" relative="1" as="geometry">
            <mxPoint x="560" y="3208" as="sourcePoint" />
            <mxPoint x="440" y="3208" as="targetPoint" />
          </mxGeometry>
        </mxCell>
        <mxCell id="Lu8lod0RweKCpHLHDI5q-319" value="Ошибка" style="text;html=1;align=center;verticalAlign=middle;whiteSpace=wrap;rounded=0;" parent="1" vertex="1">
          <mxGeometry x="470" y="3170" width="80" height="30" as="geometry" />
        </mxCell>
        <mxCell id="Lu8lod0RweKCpHLHDI5q-320" value="&lt;font style=&quot;font-size: 20px;&quot;&gt;(1)&lt;/font&gt;" style="rounded=1;whiteSpace=wrap;html=1;" parent="1" vertex="1">
          <mxGeometry x="560" y="3140" width="120" height="80" as="geometry" />
        </mxCell>
        <mxCell id="w4hQUSFQTBfFZ5smqRfT-1" value="&lt;font style=&quot;font-size: 14px;&quot;&gt;&lt;b&gt;4.д&lt;/b&gt;&lt;/font&gt;" style="text;html=1;align=center;verticalAlign=middle;whiteSpace=wrap;rounded=0;" vertex="1" parent="1">
          <mxGeometry x="-50" y="3320" width="80" height="30" as="geometry" />
        </mxCell>
        <mxCell id="w4hQUSFQTBfFZ5smqRfT-2" value="" style="endArrow=none;html=1;rounded=0;strokeWidth=5;" edge="1" parent="1">
          <mxGeometry width="50" height="50" relative="1" as="geometry">
            <mxPoint x="40" y="3280" as="sourcePoint" />
            <mxPoint x="1060" y="3280" as="targetPoint" />
          </mxGeometry>
        </mxCell>
        <mxCell id="w4hQUSFQTBfFZ5smqRfT-3" value="" style="endArrow=classic;html=1;rounded=0;entryX=0;entryY=0.051;entryDx=0;entryDy=0;entryPerimeter=0;" edge="1" parent="1">
          <mxGeometry width="50" height="50" relative="1" as="geometry">
            <mxPoint x="40" y="3330" as="sourcePoint" />
            <mxPoint x="360" y="3330.09" as="targetPoint" />
          </mxGeometry>
        </mxCell>
        <mxCell id="w4hQUSFQTBfFZ5smqRfT-4" value="Пользователь авторизован в качестве менеджера" style="text;html=1;align=center;verticalAlign=middle;whiteSpace=wrap;rounded=0;" vertex="1" parent="1">
          <mxGeometry x="80" y="3300" width="200" height="30" as="geometry" />
        </mxCell>
        <mxCell id="w4hQUSFQTBfFZ5smqRfT-5" value="" style="endArrow=classic;html=1;rounded=0;exitX=0;exitY=0.136;exitDx=0;exitDy=0;exitPerimeter=0;" edge="1" parent="1">
          <mxGeometry width="50" height="50" relative="1" as="geometry">
            <mxPoint x="360" y="3380.24" as="sourcePoint" />
            <mxPoint x="240" y="3380" as="targetPoint" />
          </mxGeometry>
        </mxCell>
        <mxCell id="w4hQUSFQTBfFZ5smqRfT-6" value="storage.html" style="rounded=0;whiteSpace=wrap;html=1;" vertex="1" parent="1">
          <mxGeometry x="120" y="3360" width="120" height="40" as="geometry" />
        </mxCell>
        <mxCell id="w4hQUSFQTBfFZ5smqRfT-7" value="" style="endArrow=classic;html=1;rounded=0;" edge="1" parent="1">
          <mxGeometry width="50" height="50" relative="1" as="geometry">
            <mxPoint x="120" y="3380" as="sourcePoint" />
            <mxPoint x="40" y="3380" as="targetPoint" />
          </mxGeometry>
        </mxCell>
        <mxCell id="w4hQUSFQTBfFZ5smqRfT-8" value="" style="endArrow=classic;html=1;rounded=0;" edge="1" parent="1">
          <mxGeometry width="50" height="50" relative="1" as="geometry">
            <mxPoint x="40" y="3440" as="sourcePoint" />
            <mxPoint x="360" y="3441" as="targetPoint" />
          </mxGeometry>
        </mxCell>
        <mxCell id="w4hQUSFQTBfFZ5smqRfT-9" value="Страница с выбором действий" style="text;html=1;align=center;verticalAlign=middle;whiteSpace=wrap;rounded=0;" vertex="1" parent="1">
          <mxGeometry x="240" y="3336" width="100" height="41" as="geometry" />
        </mxCell>
        <mxCell id="w4hQUSFQTBfFZ5smqRfT-10" value="HTML-страница" style="text;html=1;align=center;verticalAlign=middle;whiteSpace=wrap;rounded=0;" vertex="1" parent="1">
          <mxGeometry x="40" y="3350" width="80" height="27" as="geometry" />
        </mxCell>
        <mxCell id="w4hQUSFQTBfFZ5smqRfT-11" value="Переход к форме добавления товара в номенклатуру" style="text;html=1;align=center;verticalAlign=middle;whiteSpace=wrap;rounded=0;" vertex="1" parent="1">
          <mxGeometry x="80" y="3410" width="200" height="30" as="geometry" />
        </mxCell>
        <mxCell id="w4hQUSFQTBfFZ5smqRfT-12" value="" style="endArrow=classic;html=1;rounded=0;exitX=0;exitY=0.136;exitDx=0;exitDy=0;exitPerimeter=0;" edge="1" parent="1">
          <mxGeometry width="50" height="50" relative="1" as="geometry">
            <mxPoint x="360" y="3540.24" as="sourcePoint" />
            <mxPoint x="240" y="3540" as="targetPoint" />
          </mxGeometry>
        </mxCell>
        <mxCell id="w4hQUSFQTBfFZ5smqRfT-13" value="add_nomenklatura&lt;div&gt;.html&lt;/div&gt;" style="rounded=0;whiteSpace=wrap;html=1;" vertex="1" parent="1">
          <mxGeometry x="120" y="3520" width="120" height="40" as="geometry" />
        </mxCell>
        <mxCell id="w4hQUSFQTBfFZ5smqRfT-14" value="Форма ввода данных" style="text;html=1;align=center;verticalAlign=middle;whiteSpace=wrap;rounded=0;" vertex="1" parent="1">
          <mxGeometry x="256" y="3510" width="80" height="27" as="geometry" />
        </mxCell>
        <mxCell id="w4hQUSFQTBfFZ5smqRfT-15" value="HTML-страница" style="text;html=1;align=center;verticalAlign=middle;whiteSpace=wrap;rounded=0;" vertex="1" parent="1">
          <mxGeometry x="40" y="3510" width="80" height="27" as="geometry" />
        </mxCell>
        <mxCell id="w4hQUSFQTBfFZ5smqRfT-16" value="" style="endArrow=classic;html=1;rounded=0;" edge="1" parent="1">
          <mxGeometry width="50" height="50" relative="1" as="geometry">
            <mxPoint x="120" y="3540" as="sourcePoint" />
            <mxPoint x="40" y="3540" as="targetPoint" />
          </mxGeometry>
        </mxCell>
        <mxCell id="w4hQUSFQTBfFZ5smqRfT-17" value="" style="endArrow=classic;html=1;rounded=0;" edge="1" parent="1">
          <mxGeometry width="50" height="50" relative="1" as="geometry">
            <mxPoint x="40" y="3600" as="sourcePoint" />
            <mxPoint x="360" y="3601" as="targetPoint" />
          </mxGeometry>
        </mxCell>
        <mxCell id="w4hQUSFQTBfFZ5smqRfT-18" value="Поле с введеным числом" style="text;html=1;align=center;verticalAlign=middle;whiteSpace=wrap;rounded=0;" vertex="1" parent="1">
          <mxGeometry x="80" y="3570" width="200" height="30" as="geometry" />
        </mxCell>
        <mxCell id="w4hQUSFQTBfFZ5smqRfT-19" value="" style="endArrow=classic;html=1;rounded=0;entryX=0.016;entryY=0.063;entryDx=0;entryDy=0;entryPerimeter=0;" edge="1" parent="1">
          <mxGeometry width="50" height="50" relative="1" as="geometry">
            <mxPoint x="440" y="3457" as="sourcePoint" />
            <mxPoint x="561.2800000000002" y="3457.09" as="targetPoint" />
          </mxGeometry>
        </mxCell>
        <mxCell id="w4hQUSFQTBfFZ5smqRfT-20" value="Запрос на вывод номенклатуры" style="text;html=1;align=center;verticalAlign=middle;whiteSpace=wrap;rounded=0;" vertex="1" parent="1">
          <mxGeometry x="470" y="3400" width="80" height="50" as="geometry" />
        </mxCell>
        <mxCell id="w4hQUSFQTBfFZ5smqRfT-21" value="" style="endArrow=classic;html=1;rounded=0;" edge="1" parent="1">
          <mxGeometry width="50" height="50" relative="1" as="geometry">
            <mxPoint x="560" y="3508" as="sourcePoint" />
            <mxPoint x="440" y="3508" as="targetPoint" />
          </mxGeometry>
        </mxCell>
        <mxCell id="w4hQUSFQTBfFZ5smqRfT-22" value="Список номенклатуры" style="text;html=1;align=center;verticalAlign=middle;whiteSpace=wrap;rounded=0;" vertex="1" parent="1">
          <mxGeometry x="470" y="3470" width="80" height="30" as="geometry" />
        </mxCell>
        <mxCell id="w4hQUSFQTBfFZ5smqRfT-23" value="&lt;font style=&quot;font-size: 20px;&quot;&gt;(1)&lt;/font&gt;" style="rounded=1;whiteSpace=wrap;html=1;" vertex="1" parent="1">
          <mxGeometry x="560" y="3440" width="120" height="80" as="geometry" />
        </mxCell>
        <mxCell id="w4hQUSFQTBfFZ5smqRfT-24" value="route" style="rounded=0;whiteSpace=wrap;html=1;" vertex="1" parent="1">
          <mxGeometry x="360" y="3300" width="80" height="370" as="geometry" />
        </mxCell>
        <mxCell id="w4hQUSFQTBfFZ5smqRfT-25" value="" style="endArrow=classic;html=1;rounded=0;" edge="1" parent="1">
          <mxGeometry width="50" height="50" relative="1" as="geometry">
            <mxPoint x="360" y="3651" as="sourcePoint" />
            <mxPoint x="40" y="3650" as="targetPoint" />
          </mxGeometry>
        </mxCell>
        <mxCell id="w4hQUSFQTBfFZ5smqRfT-26" value="Сообщение о необходимости ввести корректные данные" style="text;html=1;align=center;verticalAlign=middle;whiteSpace=wrap;rounded=0;" vertex="1" parent="1">
          <mxGeometry x="80" y="3620" width="200" height="30" as="geometry" />
        </mxCell>
      </root>
    </mxGraphModel>
  </diagram>
</mxfile>
